<?xml version="1.0" encoding="utf-8"?>
<!-- Generator: Adobe Illustrator 23.0.1, SVG Export Plug-In . SVG Version: 6.00 Build 0)  -->
<svg version="1.1" id="Layer_1" xmlns="http://www.w3.org/2000/svg" xmlns:xlink="http://www.w3.org/1999/xlink" x="0px" y="0px"
	 viewBox="0 0 800 800" style="enable-background:new 0 0 800 800;" xml:space="preserve">
<style type="text/css">
	.st0{fill-rule:evenodd;clip-rule:evenodd;fill:#1C8ADB;}
	.st1{fill-rule:evenodd;clip-rule:evenodd;fill:#FFFFFF;filter:url(#Adobe_OpacityMaskFilter);}
	.st2{opacity:0.42;mask:url(#f_1_);fill-rule:evenodd;clip-rule:evenodd;fill:url(#SVGID_1_);enable-background:new    ;}
	.st3{fill-rule:evenodd;clip-rule:evenodd;fill:#FFFFFF;filter:url(#Adobe_OpacityMaskFilter_1_);}
	.st4{mask:url(#e_1_);fill-rule:evenodd;clip-rule:evenodd;fill:#FFFFFF;}
</style>
<rect class="st0" width="799.5" height="799.5"/>
<g transform="translate(0 -252.36)" shape-rendering="auto">
	<defs>
		<filter id="Adobe_OpacityMaskFilter" filterUnits="userSpaceOnUse" x="3.3" y="478.6" width="566.4" height="573.3">
			<feColorMatrix  type="matrix" values="1 0 0 0 0  0 1 0 0 0  0 0 1 0 0  0 0 0 1 0"/>
		</filter>
	</defs>
	<mask maskUnits="userSpaceOnUse" x="3.3" y="478.6" width="566.4" height="573.3" id="f_1_">
		<circle image-rendering="auto" shape-rendering="auto" color-rendering="auto" class="st1" cx="400" cy="652.4" r="400"/>
	</mask>
	
		<linearGradient id="SVGID_1_" gradientUnits="userSpaceOnUse" x1="399.8531" y1="641.8176" x2="155.2931" y2="376.0977" gradientTransform="matrix(1 0 0 -1 0 1304.72)">
		<stop  offset="0" style="stop-color:#000000"/>
		<stop  offset="1" style="stop-color:#000000;stop-opacity:0"/>
	</linearGradient>
	<path image-rendering="auto" color-rendering="auto" class="st2" d="M241.4,478.6L3.3,716.7c25,189.8,123.3,321.4,369.9,335.2
		l196.5-196.5V478.6L241.4,478.6z"/>
	<defs>
		<filter id="Adobe_OpacityMaskFilter_1_" filterUnits="userSpaceOnUse" x="241.4" y="478.6" width="328.3" height="408.4">
			<feColorMatrix  type="matrix" values="1 0 0 0 0  0 1 0 0 0  0 0 1 0 0  0 0 0 1 0"/>
		</filter>
	</defs>
	<mask maskUnits="userSpaceOnUse" x="241.4" y="478.6" width="328.3" height="408.4" id="e_1_">
		<circle image-rendering="auto" shape-rendering="auto" color-rendering="auto" class="st3" cx="400" cy="652.4" r="400"/>
	</mask>
	<path image-rendering="auto" color-rendering="auto" class="st4" d="M241.4,478.6v376.8h210.5v-21.1H259.8V499.6h291.6v334.7h-28.3
		v21.1h46.6V478.6L241.4,478.6L241.4,478.6z M277.8,517v22.2h213.1V517H277.8z M277.8,547v22.2h227.8V547H277.8z M277.8,577v22.2
		h162.1V577H277.8z M277.8,607v22.2h208.1V607H277.8z M277.8,637v22.2h220.3V637H277.8z M277.8,667v22.2h247.4V667H277.8L277.8,667z
		 M277.8,697v22.2h238.8V697H277.8L277.8,697z M482.8,739.8L479,750l-8-7.3l-1,10.8l-9.6-5l1.5,8.9l-8.7-2.4l4.6,11.6l-12.5,0.5
		l5.8,6.9l-8.8,2.2l8.5,6.7l-9.4,5.3l10,4.3l-7.8,7.6l8.9,1.3l-5,7.5l12.5-0.8l-3.4,12l8.4-3.3l-0.6,9l6.4-4.2V887l16.6-19.4
		l16.6,19.4v-65.8l6.6,4.4l-0.6-9l8.4,3.3l-2.9-10.4l10.8,1.3l-5.5-9.3l10.7-1.6l-6.5-6.3l8.5-3.1l-10.6-6.7l9.8-7.7l-8.8-2.2
		l5.8-6.9l-10.8-0.4l4.5-9.8l-10.6,2.4l1.8-10.7l-8,4.2l-0.4-9l-9.6,8l-4.3-11.7l-4.8,7.6L482.8,739.8L482.8,739.8z M487.5,756.8
		c16,0,29,13,29,29c0,16-13,29-29,29c0,0,0,0,0,0c-16,0-29-13-29-29C458.5,769.7,471.5,756.8,487.5,756.8L487.5,756.8z M487.5,759.3
		c-14.6,0-26.5,11.8-26.5,26.5c0,14.6,11.8,26.5,26.5,26.5s26.5-11.8,26.5-26.5c0,0,0,0,0,0C514,771.2,502.1,759.3,487.5,759.3
		L487.5,759.3z"/>
</g>
</svg>
